<svg id="Layer_1" data-name="Layer 1" xmlns="http://www.w3.org/2000/svg" viewBox="0 0 200.23 80.79"><defs><style>.cls-1{fill:#231f20;}</style></defs><title>Artboard 1</title><path class="cls-1" d="M197.81,61.37c-1.55.2-3.16.34-4.71.47v.07c-3,21.58-32.8,25.14-33.54,8.2-.34-7.66,14.52-9.88,29.31-11.29.54-13.78-19.91,7-27.06-5.72-6.29-11.22,18.33-22.29,21-20,8.06,7,4.26,8.22-1.73,10.36-11.89,4.24-7.25,5.1-5.65,4.63,9.48-2.8,18-1.29,17.93,10.33,1.61-.13,3.16-.2,4.7-.34C200.9,57.81,201.11,61.1,197.81,61.37Zm-9.41.94c-11.43,1.28-21.31,3-20.23,6.65C170.32,75.89,185.18,77.43,188.4,62.31Z"/><path class="cls-1" d="M147.39,55.83c-.85,0-.88-7.5.14-14.52,1.26-8.64,14.95-4.17,11.39-2.37-3.73,1.89-5.55,10.83-7.85,15C150.28,55.4,147.81,55.86,147.39,55.83Z"/><path class="cls-1" d="M52.74,26.12c3,6-6.18,10.15-10.39,5.62-1.75-1.93-.95-5.67,3.3-7.69C47.78,23,50.75,22.06,52.74,26.12Z"/><path class="cls-1" d="M71.47,23.46c3.24,6.58-6.74,11.05-11.31,6.12-1.91-2.11-1-6.17,3.6-8.38C66.07,20.06,69.31,19,71.47,23.46Z"/><path class="cls-1" d="M36.17,76.64c-9.92,6.63-17.81,5.17-15.29-13.48C22.7,49.62,19.69,48.85,17,51.43c-3.56,3.35-5.8,12.08-5.87,20.39.35,2.09.77,4.12,1.26,5.94.42,2-6.15,4.12-10,1.26C1,78,0,68.19,0,54.85,0,43.89,1.47,36.35,2.79,36c10.06-2.72,11.66,1.68,9.5,9.92a58.58,58.58,0,0,0-1.75,9.85c2.1-5.8,5.1-10.54,8.52-12.64,9.29-5.8,17-3.07,15.57,8.45-2.51,20.6-2.72,23.39-.49,21.79C36.94,71.4,38.76,74.9,36.17,76.64Z"/><path class="cls-1" d="M68.86,74.06c-2.72,4.33-9.78,6.42-16.55,5.66-9.71-1-15.71-9.64-13.41-22.49C41.42,43.34,61.53,34.47,68,44.38c4.68,7.19-2.72,19.9-14.53,24.58l-.63.21c2.44,6.42,8.24,9.29,13.83,2.93C69.28,69.18,71.17,70.43,68.86,74.06Zm-17-9.22c7.33-5.17,9.78-16.55,7.75-19.76S53.22,47,51.75,59.68A25.31,25.31,0,0,0,51.82,64.85Z"/><path class="cls-1" d="M104.07,55.93a15.32,15.32,0,0,1-7.47,6.29c-3,.91-6.49.07-6.49-3.35,0-1.26,1.12-4.19,4.54-5.87-.21-2.37-1.75-3-2.86-2.1-4.19,3.21-9.29,15.22-8,23.88a1.94,1.94,0,0,1,.07.63c.21.77.42,1.54.7,2.3.7,2-6.15,4.12-10,1.19-1.33-1-2-8.66-2-22,0-11,2.44-20.67,3.77-21,8-2.16,12.71,1.61,10.2,9A80.19,80.19,0,0,0,83,57.81c3.07-8.31,8.17-16,12.29-18,7.33-3.63,12.64,1.19,11.1,9.71a2.14,2.14,0,0,0-.14.56c-.07.7-.71,2.86-.49,2.16A13.06,13.06,0,0,1,104.07,55.93Z"/><path class="cls-1" d="M141.79,32.53c-.56,2.86-1,6-1.4,9.36-1.33,12.5-.77,23.6.77,28.56.91,2.65,4.33,6.15,7.61,2.51,3.56-4,7.47-1.68,2.72,3-2.93,2.86-8.38,4.82-13.83,4.26-3.91-.49-6.29-3-7.68-6.84a10.86,10.86,0,0,1-2,2.86,11.67,11.67,0,0,1-10,3.84c-8.31-.91-13.2-9.85-10.9-22.56,2.44-13.41,14.18-18.3,21-14.74.14-1.68.28-3.35.42-5.1.07-.35.07-.7.14-1-2,.42-4.05.84-6.22,1.19-30,5-19.69-19.34-12.36-25.7,8.31-7.12,9.22-2.3,6.63-.7-4.61,2.93-6.63,19.76,6.56,19.76a59.54,59.54,0,0,0,6.21-.35C133.62,8.08,146.12-3,156.25.68,167.49,4.73,166.3,22.47,141.79,32.53ZM128.1,62.83c-.28-4.4-.28-9.36-.21-14.46,0-.63.07-1.26.07-1.82-4.19-1.89-8.31,4.54-9.36,13.41-1.19,10.41,3.49,15.92,6.15,13.41C126.78,71.35,127.82,64.93,128.1,62.83ZM158.27,9.2C156,5.92,147.87,9.9,143.12,27,155.06,21.35,159.81,11.57,158.27,9.2Z"/></svg>